<svg id="Capa_1" enable-background="new 0 0 438.309 438.309" height="512" viewBox="0 0 438.309 438.309" width="512" xmlns="http://www.w3.org/2000/svg"><g><g><path d="m219.129 413.265c-9.08 0-16.462 5.638-16.462 12.522s7.384 12.522 16.462 12.522c9.08 0 16.462-5.588 16.462-12.522 0-6.935-7.382-12.522-16.462-12.522z" fill="#d5d6db"/><path d="m187.103 351.005v61.062c0 7.384 5.986 13.369 13.369 13.369h.05 37.215c7.384.028 13.391-5.936 13.419-13.319 0-.016 0-.034 0-.05v-61.062z" fill="#3a556a"/><path d="m276.949 286.152h-25.891v-243.299c0-9.368-7.594-16.961-16.961-16.961s-16.961 7.594-16.961 16.961v243.299h-25.891v-243.299c-.003-23.667 19.183-42.853 42.851-42.853s42.853 19.186 42.853 42.853z" fill="#d5d6db"/><path d="m247.016 286.152h-25.891v-243.299c0-9.368-7.594-16.961-16.961-16.961s-16.961 7.594-16.961 16.961v243.299h-25.891v-243.299c.016-23.667 19.214-42.841 42.881-42.825 23.645.015 42.81 19.18 42.825 42.825v243.299z" fill="#e1e6e9"/><path d="m296.803 272.882h-155.348c-3.038.028-5.488 2.498-5.488 5.538v38.961c0 26.201 21.241 47.443 47.443 47.443h71.439c26.201 0 47.443-21.241 47.443-47.443v-38.961c-.001-3.04-2.449-5.51-5.489-5.538z" fill="#e1e6e9"/><path d="m135.967 288.097h166.374v6.635h-166.374z" fill="#d5d6db"/></g></g></svg>